<svg xmlns="http://www.w3.org/2000/svg" viewBox="0 0 32 32"><g stroke-width="0"><path fill="#771bff" d="M0 0h32v32H0z"></path><path fill="#afe229" d="M22.76 19.99l2.89-.05c-.01.41-.13.8-.34 1.15-.08.14-.17.28-.25.43-.16.29-.33.57-.49.86-.53.9-1.06 1.81-1.59 2.71-.11.19-.24.37-.36.55-.18.26-.42.48-.69.64-.27.15-.57.24-.88.25-.64.05-1.28.07-1.92.05-1.12 0-2.24.06-3.36 0-.3 0-.59-.06-.88-.16-.1-.04-.19-.08-.27-.14h-.02l1.85-3.4s.54-1.03.63-1.19c.31-.5.73-.91 1.24-1.21.42-.25.88-.4 1.36-.46.29-.04 3.08-.02 3.08-.02zm-.63.82l-.02.02.02-.02zm-.03.07s0-.03.01-.05c0 .01-.01.03-.01.05z"></path><path fill="#fff" d="M12.26 24.98c-1.41-.83-2.88-1.57-4.25-2.46-.37-.23-.71-.51-1-.85-.44-.55-.56-1.2-.59-1.88-.09-1.66-.02-3.33-.05-5-.02-.79 0-1.59 0-2.38.01-1.31.61-2.25 1.72-2.9 1.12-.66 2.25-1.32 3.38-1.98.89-.52 1.79-1.04 2.68-1.56.21-.12.43-.21.64-.31 1.1-.52 2.11-.18 3.09.36.06.03.12.08.18.11.51.22.98.53 1.46.8 1.29.73 2.58 1.47 3.87 2.2.39.23.76.48 1.12.75.79.59 1.04 1.43 1.09 2.36.07 1.16.04 2.32.04 3.48 0 .65 0 1.29.02 1.94l-1.6.03h-2.79v-1.85c0-.63.02-1.26-.01-1.89-.03-.51-.16-.96-.59-1.28-.19-.15-.4-.28-.61-.41-.7-.4-1.4-.8-2.11-1.19-.26-.16-.52-.3-.79-.43-.03-.02-.06-.04-.1-.06-.53-.29-1.08-.47-1.68-.19-.12.06-.24.1-.35.17-.49.28-.98.57-1.47.85-.61.36-1.23.72-1.85 1.08-.61.35-.94.87-.95 1.58 0 .43-.01.86 0 1.29.02.9-.03 1.81.02 2.72.02.37.08.72.32 1.02.15.18.33.34.54.46.75.48 1.55.88 2.32 1.33.27.16.54.32.81.47-.22.41-.41.78-.41.78l-1.68 3.08c-.14-.08-.27-.16-.41-.24z"></path></g></svg>