<svg xmlns="http://www.w3.org/2000/svg" width="122.88" height="105.21" viewBox="0 0 122.88 105.21" fill="currentColor">
  <path d="M63.91,18.75V30.91H97.42a9.9,9.9,0,0,1,9.87,9.87V53.25h13.42a2.174,2.174,0,0,1,2.17,2.17V80.7a2.174,2.174,0,0,1-2.17,2.17H107.29V95.34a9.9,9.9,0,0,1-9.87,9.87h-73a9.9,9.9,0,0,1-9.87-9.87V82.87H2.17A2.166,2.166,0,0,1,0,80.71V55.42a2.174,2.174,0,0,1,2.17-2.17H14.55V40.79a9.9,9.9,0,0,1,9.87-9.87H57.93V18.75a9.61,9.61,0,1,1,5.98,0ZM41.03,79.74H81.84a3.632,3.632,0,0,1,3.62,3.62v1.7a3.632,3.632,0,0,1-3.62,3.62H41.03a3.632,3.632,0,0,1-3.62-3.62v-1.7a3.625,3.625,0,0,1,3.62-3.62ZM78.7,47.59a9.725,9.725,0,1,1-9.72,9.73,9.728,9.728,0,0,1,9.72-9.73Zm-34.52,0a9.725,9.725,0,1,1-9.72,9.73,9.72,9.72,0,0,1,9.72-9.73Z" fill-rule="evenodd"/>
</svg>
