<?xml version="1.0" encoding="UTF-8"?><svg id="Layer_2" xmlns="http://www.w3.org/2000/svg" viewBox="0 0 32 32"><g id="Layer_1-2"><rect width="32" height="32" style="fill:none; stroke-width:0px;"/><path d="M21.6,19.3l2.39-.04c0,.34-.11.66-.28.95-.07.12-.14.24-.21.35-.14.24-.27.47-.41.71-.44.75-.88,1.5-1.32,2.25-.09.16-.2.3-.3.45-.15.22-.35.4-.57.53-.22.13-.47.2-.73.21-.53.04-1.06.06-1.6.04-.93,0-1.86.05-2.79,0-.25,0-.49-.05-.73-.13-.08-.03-.15-.07-.23-.12h-.02s1.54-2.82,1.54-2.82c0,0,.45-.85.53-.99.26-.41.61-.76,1.03-1,.35-.2.73-.33,1.13-.38.24-.03,2.55-.02,2.55-.02h0ZM21.08,19.99s-.01.01-.01.02c0,0,0-.01.01-.02ZM21.06,20.04s0-.03.01-.04c0,.01,0,.03-.01.04Z" fill="currentColor" stroke-width="0"/><path d="M12.9,23.44c-1.17-.69-2.38-1.3-3.53-2.04-.31-.19-.59-.42-.83-.7-.37-.45-.46-1-.49-1.55-.08-1.38-.01-2.76-.04-4.15-.01-.66,0-1.32,0-1.98,0-1.09.51-1.87,1.43-2.4.93-.55,1.87-1.09,2.8-1.64.74-.43,1.48-.86,2.22-1.29.17-.1.35-.17.53-.26.92-.43,1.75-.15,2.56.3.05.03.1.06.15.09.42.18.81.44,1.21.67,1.07.61,2.14,1.22,3.21,1.83.32.19.63.4.93.62.65.49.86,1.19.9,1.96.06.96.03,1.92.03,2.88,0,.53,0,1.07.01,1.61l-1.33.02s-1.23,0-2.31,0c0-.51,0-1.02,0-1.54,0-.52.02-1.04,0-1.57-.02-.42-.13-.8-.49-1.06-.16-.12-.33-.23-.51-.34-.58-.33-1.16-.66-1.75-.99-.21-.13-.43-.25-.66-.36-.03-.02-.05-.03-.08-.05-.44-.24-.9-.39-1.4-.16-.1.05-.2.09-.29.14-.41.23-.81.47-1.21.71-.51.3-1.02.6-1.53.89-.5.29-.78.72-.78,1.31,0,.36-.01.71,0,1.07.01.75-.02,1.5.01,2.25.01.3.07.6.27.84.13.15.28.28.45.38.62.4,1.28.73,1.92,1.1.22.13.45.26.67.39-.18.34-.34.65-.34.65l-1.4,2.55c-.11-.07-.22-.13-.34-.2h0Z" fill="currentColor" stroke-width="0"/></g></svg>