<svg width="22" height="22" viewBox="0 0 22 22" fill="none" xmlns="http://www.w3.org/2000/svg">
    <path d="M15.0392 16.726C14.4972 16.7934 13.9748 16.9715 13.5047 17.2495C12.9308 17.58 12.449 18.0491 12.1033 18.6139C11.9947 18.7947 11.3871 19.9614 11.3871 19.9614L9.29688 23.7817L9.31899 23.7972C9.41615 23.8603 9.51945 23.9133 9.62731 23.9556C9.94412 24.0694 10.2774 24.1306 10.614 24.1368C11.8781 24.1943 13.1426 24.1198 14.4069 24.129C15.1315 24.152 15.8568 24.1344 16.5793 24.0762C16.9272 24.0586 17.266 23.9592 17.5683 23.7861C17.8785 23.6081 18.1449 23.3631 18.3484 23.0691C18.4872 22.8637 18.6318 22.6615 18.7576 22.4486C19.3589 21.4281 19.957 20.4064 20.5519 19.3836C20.7393 19.0628 20.9228 18.7398 21.107 18.4181C21.1995 18.2577 21.2954 18.0983 21.3884 17.9368C21.6239 17.545 21.7551 17.0995 21.7695 16.6426L18.5105 16.7003C18.5105 16.7003 15.3644 16.6875 15.0392 16.726ZM17.804 17.6291C17.784 17.6499 17.7719 17.677 17.7697 17.7057C17.772 17.677 17.784 17.65 17.8038 17.6291H17.804Z" fill="#AFE229"></path>
    <path d="M7.11943 22.6092L9.02145 19.1332C9.02145 19.1332 9.23783 18.7175 9.48067 18.2556C9.17018 18.0878 8.86686 17.9061 8.56277 17.7277C7.69679 17.2204 6.79704 16.7708 5.95037 16.2303C5.72043 16.0923 5.5146 15.9176 5.34103 15.7131C5.07045 15.3772 5 14.9768 4.9789 14.5638C4.9266 13.5407 4.97608 12.5177 4.95831 11.4947C4.94987 11.0076 4.95831 10.5204 4.96444 10.0331C4.97467 9.22744 5.34807 8.65073 6.03285 8.25009C6.72739 7.8437 7.42142 7.43665 8.11494 7.02889C8.66549 6.70699 9.21698 6.38664 9.7694 6.06788C9.89613 5.99525 10.0321 5.93847 10.1644 5.87607C10.8446 5.55459 11.4624 5.75741 12.0643 6.08874C12.1026 6.10984 12.1386 6.1344 12.1758 6.15742C12.4824 6.30565 12.7812 6.46953 13.0709 6.64845C13.8653 7.0932 14.6581 7.54077 15.4494 7.99115C15.6878 8.12967 15.9175 8.28265 16.1372 8.44921C16.6222 8.80918 16.7725 9.32438 16.8035 9.89419C16.8419 10.6048 16.8195 11.3164 16.8163 12.0277C16.8138 12.7259 16.8267 13.4236 16.8189 14.1221C18.2966 14.1155 19.9646 14.1221 19.9646 14.1221L21.7724 14.0902C21.7655 13.3603 21.7556 12.6304 21.7554 11.9003C21.7554 10.5909 21.7921 9.2808 21.716 7.97198C21.655 6.92186 21.3763 5.9721 20.4843 5.30599C20.0805 4.99791 19.6583 4.71464 19.2201 4.45769C17.7658 3.6241 16.3094 2.79411 14.8508 1.96777C14.3052 1.65959 13.7826 1.30932 13.2057 1.05728C13.1374 1.01469 13.0709 0.96934 13.0011 0.930337C11.8952 0.316529 10.7613 -0.0617321 9.51634 0.525478C9.27401 0.639927 9.02517 0.742818 8.79333 0.876577C7.78157 1.45731 6.77271 2.04325 5.76675 2.63438C4.49599 3.37752 3.22631 4.12221 1.95769 4.86841C0.704495 5.60166 0.0243105 6.66018 0.0112671 8.14419C0.00333874 9.04138 -0.00894167 9.93848 0.010112 10.8354C0.0500095 12.7193 -0.0336202 14.6045 0.0693205 16.4875C0.11088 17.2483 0.242975 17.9859 0.741438 18.6064C1.06076 18.9839 1.43935 19.307 1.8624 19.563C3.41828 20.5643 5.07096 21.3982 6.66238 22.3379C6.8149 22.4282 6.96725 22.5187 7.11943 22.6092Z" fill="#771BFF"></path>
</svg>