<svg viewBox="0 0 32 32" xmlns="http://www.w3.org/2000/svg"><g stroke-width="0"><path fill="#2264c0" d="M0 0h32v32H0z"/><g fill="#fff"><circle cx="17.55" cy="18.04" r=".79"/><circle cx="13.96" cy="18.04" r=".79"/><path d="M23.9 16.35a3.214 3.214 0 00-3.15-3.83c-.27 0-.55.03-.81.1a3.97 3.97 0 00-3.95-3.61c-1.61 0-3.03.96-3.64 2.4-.3-.09-.61-.14-.92-.14-1.77 0-3.21 1.44-3.21 3.21 0 .18.02.36.05.54a4.296 4.296 0 00-1.93 3.65c.02 2.37 1.99 4.29 4.38 4.29h11.35c1.98 0 3.58-1.61 3.58-3.58 0-1.24-.68-2.39-1.76-3.04zm-11.94 2.34c-.11.61-.69 1.05-1.38 1.05-.56 0-1.1-.23-1.46-.63a.37.37 0 01.03-.53.37.37 0 01.53.03c.21.24.55.38.9.38s.6-.22.64-.42c.05-.29-.31-.45-.47-.51-.52-.19-.99-.4-1.01-.41-.02 0-.04-.02-.05-.03-.34-.22-.52-.61-.46-1.02.06-.43.38-.79.83-.92.9-.27 1.64.24 1.77.48.1.18.03.41-.16.51-.17.09-.37.04-.48-.11-.05-.04-.42-.31-.91-.16-.24.07-.29.24-.3.31-.02.11.02.2.1.27.11.05.51.22.93.38.83.31 1.04.9.96 1.35zm3.55.67a.38.38 0 01-.76.01 1.54 1.54 0 11-.79-2.86c.29 0 .56.08.79.22 0-.21.17-.37.38-.37s.38.17.38.38v2.64zm3.58 0a.38.38 0 01-.76.01 1.54 1.54 0 11-.79-2.86c.29 0 .56.08.79.22 0-.21.17-.37.38-.37s.38.17.38.38v2.64zm3.42-.67c-.11.61-.69 1.05-1.38 1.05-.56 0-1.1-.23-1.46-.63a.37.37 0 01.03-.53.37.37 0 01.53.03c.21.24.55.38.9.38s.6-.22.64-.42c.05-.29-.31-.45-.47-.51-.52-.19-.99-.4-1.01-.41-.02 0-.04-.02-.05-.03-.34-.22-.52-.61-.46-1.02.06-.43.38-.79.83-.92.9-.27 1.64.24 1.77.48.1.18.03.41-.16.51-.17.09-.37.04-.48-.11-.05-.04-.42-.31-.91-.16-.24.07-.29.24-.3.31-.02.11.02.2.1.27.11.05.51.22.93.38.83.31 1.04.9.96 1.35z"/></g></g></svg>