<?xml version="1.0" encoding="UTF-8"?>
<svg xmlns="http://www.w3.org/2000/svg" viewBox="0 0 32 32">
  <rect width="32" height="32" fill="#9a33cc" stroke-width="0"/>
  <path d="M7.88,11.46c0,1.98,1.61,3.58,3.59,3.58h9.08c1.98,0,3.59-1.6,3.59-3.58,0-1.98-1.61-3.58-3.59-3.58h-9.08c-1.98,0-3.59,1.6-3.59,3.58h0ZM8.83,11.46c0-1.45,1.18-2.63,2.63-2.63s2.63,1.18,2.63,2.63-1.18,2.63-2.63,2.63-2.63-1.18-2.63-2.63ZM7.88,20.54c0,1.98,1.61,3.58,3.59,3.58h9.08c1.98,0,3.59-1.6,3.59-3.58s-1.61-3.58-3.59-3.58h-9.08c-1.98,0-3.59,1.6-3.59,3.58h0ZM17.91,20.54c0-1.45,1.18-2.63,2.63-2.63s2.63,1.18,2.63,2.63-1.18,2.63-2.63,2.63c-1.45,0-2.63-1.18-2.63-2.63h0Z" fill="#fff" fill-rule="evenodd" stroke-width="0"/>
</svg>