<?xml version="1.0" encoding="UTF-8"?><svg id="Layer_2" xmlns="http://www.w3.org/2000/svg" viewBox="0 0 32 32"><g id="Layer_1-2"><rect width="32" height="32" style="fill:#cb6433; stroke-width:0px;"/><path d="M14.6,18.82l2.79-1.68-2.79-1.68v3.35Z" style="fill:#fff; stroke-width:0px;"/><path d="M22.86,10.29h-6.86l-.83-1.65c-.19-.39-.59-.63-1.02-.63h-5.01c-.63,0-1.14.51-1.14,1.14v13.71c0,.63.51,1.14,1.14,1.14h13.71c.63,0,1.14-.51,1.14-1.14v-11.43c0-.63-.51-1.14-1.14-1.14ZM18.6,18.12l-4.03,2.42c-.35.22-.79.22-1.15.01-.36-.2-.58-.58-.58-.99v-4.84c0-.63.51-1.14,1.14-1.14.21,0,.41.06.59.16l4.03,2.42c.54.32.72,1.03.39,1.57-.1.16-.23.3-.39.39Z" style="fill:#fff; stroke-width:0px;"/></g></svg>