<?xml version="1.0" encoding="UTF-8"?><svg id="Layer_2" xmlns="http://www.w3.org/2000/svg" viewBox="0 0 32 32"><g id="Layer_1-2"><rect width="32" height="32" style="fill:#8bae3e; stroke-width:0px;"/><path d="M12.16,10.76h-2.5c-.44,0-.86.17-1.17.48-.31.31-.48.73-.48,1.17,0,0,0,1.36,0,2.23,0,.31.13.61.36.81.23.21.54.31.85.28h.16c.76,0,1.38.61,1.38,1.37s-.62,1.38-1.38,1.38c-.04,0-.09,0-.13,0-.01,0-.02,0-.03,0-.31-.03-.62.07-.85.28-.23.21-.36.51-.36.82v2.78c0,.44.17.86.48,1.17.31.31.73.48,1.17.48,0,0,1.56,0,2.5,0,.31,0,.61-.13.81-.36.21-.23.31-.54.28-.85v-.16c0-.76.61-1.38,1.37-1.38s1.38.62,1.38,1.38c0,.04,0,.09,0,.13,0,.01,0,.02,0,.03-.03.31.07.62.28.85.21.23.51.36.82.36h2.5c.44,0,.86-.17,1.17-.48.31-.31.48-.73.48-1.17v-2.77c.09.01.18.02.28.02,1.37,0,2.48-1.11,2.48-2.48s-1.11-2.48-2.48-2.48c-.09,0-.19,0-.28.02v-2.22c0-.44-.17-.86-.48-1.17-.31-.31-.73-.48-1.17-.48,0,0-1.55,0-2.5,0,0-.09.01-.18.01-.27,0-1.37-1.11-2.48-2.48-2.48s-2.48,1.11-2.48,2.48c0,.09,0,.19.02.28Z" style="fill:#fff; fill-rule:evenodd; stroke-width:0px;"/></g></svg>