<?xml version="1.0" encoding="UTF-8"?><svg id="Layer_2" xmlns="http://www.w3.org/2000/svg" viewBox="0 0 32 32"><g id="Layer_1-2"><rect width="32" height="32" style="fill:#ee8434; stroke-width:0px;"/><g id="Layer_2-2"><path d="M21.62,7.5h-11.25c-1.59,0-2.88,1.29-2.88,2.88h0v1.05h17v-1.05c0-1.59-1.29-2.88-2.88-2.88ZM10.12,10.12c-.36,0-.65-.29-.65-.65s.29-.65.65-.65.65.29.65.65-.29.65-.65.65ZM12.08,10.12c-.36,0-.65-.29-.65-.65s.29-.65.65-.65.65.29.65.65-.29.65-.65.65Z" style="fill:#fff; stroke-width:0px;"/><path d="M7.5,21.62c0,1.59,1.29,2.88,2.88,2.88h11.25c1.59,0,2.88-1.29,2.88-2.88v-8.89H7.5v8.89ZM12.32,17.37c.12-.36.43-.62.8-.67l1.37-.2.62-1.25c.24-.49.84-.69,1.33-.45.2.1.35.25.45.45l.62,1.25,1.37.2c.54.08.92.58.84,1.12-.03.22-.13.42-.29.57l-.99.97.23,1.37c.09.54-.27,1.05-.81,1.15-.22.04-.44,0-.63-.1l-1.23-.65-1.23.65c-.49.25-1.08.07-1.34-.42-.1-.19-.14-.41-.1-.63l.23-1.37-1-.97c-.27-.26-.37-.66-.25-1.02h0Z" style="fill:#fff; stroke-width:0px;"/></g></g></svg>