<?xml version="1.0" encoding="UTF-8"?><svg id="Layer_2" xmlns="http://www.w3.org/2000/svg" viewBox="0 0 32 32"><g id="Layer_1-2"><rect width="32" height="32" style="fill:#d03f38; stroke-width:0px;"/><path d="M15.43,15.21l-7.93-3.27v8.69c0,.23.13.43.34.52l7.59,3.25v-9.19ZM24.5,11.95l-7.93,3.26v9.2l7.59-3.25c.21-.09.34-.29.34-.52v-8.68ZM8.52,20.65l1.3.58c.29.13.62,0,.75-.29.13-.29,0-.62-.29-.75l-1.3-.58c-.29-.13-.62,0-.75.29-.13.29,0,.62.29.75ZM8.52,18.88l1.3.58c.29.13.62,0,.75-.29.13-.29,0-.62-.29-.75l-1.3-.58c-.29-.13-.62,0-.75.29s0,.62.29.75ZM8.06,10.95l7.94,3.27,7.95-3.27-7.72-3.31c-.14-.06-.3-.06-.45,0,0,0-7.71,3.31-7.71,3.31Z" style="fill:#fff; fill-rule:evenodd; stroke-width:0px;"/></g></svg>